<?xml version="1.0" encoding="UTF-8"?>
<svg xmlns="http://www.w3.org/2000/svg" version="1.1" viewBox="0 0 2067.43 2170.29">
  <defs>
    <style>
      .cls-1 {
        stroke: #fff;
        stroke-miterlimit: 10;
      }

      .cls-1, .cls-2 {
        fill: #000;
      }

      .cls-2 {
        font-family: ArialNarrow-Bold, Arial;
        font-size: 57px;
        font-weight: 700;
      }

      .cls-3 {
        fill: #fff;
        stroke-width: 0px;
      }
    </style>
  </defs>
  <g id="Layer_3" data-name="Layer 3">
    <rect class="cls-1" x="768.43" y="732.51" width="512" height="512" rx="70.71" ry="70.71"/>
  </g>
  <g id="Layer_1" data-name="Layer 1">
    <g>
      <path class="cls-3" d="M1139.03,1134.43c-7.41.05-14.82.05-22.23,0-4.31-.03-5.93-1.23-6.64-5.02-2.7-14.35-5.34-28.71-8-43.05-3.09-16.69-6.14-33.36-9.21-50.04-.37-2.01-.76-4.01-1.14-6.01-.56-2.9-2.02-4.44-4.57-4.79-2.72-.39-4.68.67-6.2,3.56-8.2,15.56-16.38,31.13-24.56,46.69-9.86,18.78-19.74,37.55-29.57,56.34-1.27,2.41-2.49,4.8-6.16,4.74-3.49-.05-4.63-2.37-5.8-4.67-17.35-34.03-34.71-68.05-52.06-102.07-.31-.59-.57-1.19-.9-1.77-1.4-2.46-3.16-3.37-5.83-3.06-2.47.28-3.89,1.46-4.51,4.04-.77,3.24-1.42,6.5-2.08,9.77-5.11,24.82-10.2,49.66-15.31,74.49-1.08,5.27-2.15,10.53-3.23,15.79-.8,3.87-2.41,5.05-7.04,5.07-7.27.03-14.56.04-21.84,0-5.56-.03-7.59-2.21-6.53-6.99,6.2-27.47,12.46-54.95,18.66-82.44,5.63-24.96,11.31-49.92,16.85-74.89,1.82-8.18,3.04-16.46,5.02-24.61,2.72-11.25,7.87-21.8,13.49-32.17.45-.83,1.1-1.57,1.65-2.34.19.05.37.11.56.16-.14,1.02-.28,2.02-.45,3.02-2.48,14.35-2.28,28.57,2.52,42.57,4.03,11.78,11.08,21.89,22.04,29.8,1.51,1.1,1.93,2.25,1.98,3.85.34,9.45,1.96,18.72,5.68,27.66,2.9,7,6.81,13.52,12.46,19.18,3.01,3.02,6.42,5.63,10.42,7.63,9.99,4.96,19.97,4.9,29.87-.13,6.19-3.14,10.9-7.65,14.79-12.82,6.68-8.85,10.43-18.64,12.21-29,2.58-14.93,1.5-29.66-4.23-44-2.79-7.03-6.67-13.57-12.3-19.24-5.96-6.01-13.06-10.38-22.44-11.42-5.71-.62-11.02.47-16.1,2.64-5.43,2.32-9.92,5.65-13.46,9.85-2.69,3.19-5.05,6.58-7.36,9.98-2.47,3.64-6.16,4.23-9.69,1.26-8.64-7.31-12.24-16.35-12.02-26.67.23-10.47,3.63-20.3,8.71-29.63,4.48-8.2,9.37-16.27,14.8-24.02,12.12-17.29,25.71-33.74,39.37-50.13.54-.66,1.22-1.23,2.53-1.74,0,0-15.28,45.54,53.68,128.57l-1.98-4.72c.6.23,1.28.33,2.05.33,2.58,0,4.21-1.1,5.26-3.79,4.07-10.42,6.08-21.13,5.48-32.17-.06-.92-.02-1.85-.02-3.43.97.95,1.57,1.41,1.96,1.97,8.33,11.99,14.82,24.64,17.5,38.55,1.65,8.62,1.99,17.25-.29,25.81-.71,2.61-.32,5.07.19,7.59,5.14,25.27,10.26,50.53,15.39,75.78,4.99,24.53,9.97,49.06,14.94,73.59.88,4.34-1.19,6.5-6.3,6.53Z"/>
      <path class="cls-3" d="M1053.59,1006.37c-3.25,8.38-7.9,15.93-15.88,21.58-9.81,6.96-20.82,7.03-30.81.32-7.07-4.75-14.52-14.76-16.44-22.43,8.61,8.67,18.34,14.9,31.69,14.87,13.26-.03,22.95-6.16,31.43-14.34Z"/>
      <path class="cls-3" d="M1049.21,987.1c.12.42.29.67.21.8-3.88,6.46-8.95,12.03-16.4,15.63-6.95,3.36-14.09,3.52-21.2.34-8.18-3.66-13.36-9.7-17.35-16.72,7.84,6.13,16.58,10.31,27.4,10.36,10.83.04,19.63-4.04,27.35-10.41Z"/>
    </g>
    <text class="cls-2" transform="translate(834.11 1325.97)"><tspan x="0" y="0">MUDAHERANWA</tspan></text>
  </g>
</svg>